<?xml version="1.0" encoding="UTF-8" standalone="no"?>
<svg width="375px" height="58px" viewBox="0 0 375 58" version="1.1" xmlns="http://www.w3.org/2000/svg" xmlns:xlink="http://www.w3.org/1999/xlink" xmlns:sketch="http://www.bohemiancoding.com/sketch/ns">
    <!-- Generator: Sketch Beta 3.2 (9961) - http://www.bohemiancoding.com/sketch -->
    <title>PLAYER 2</title>
    <desc>Created with Sketch Beta.</desc>
    <defs></defs>
    <g id="Page-1" stroke="none" stroke-width="1" fill="none" fill-rule="evenodd" sketch:type="MSPage">
        <g id="Desktop-HD" sketch:type="MSArtboardGroup" transform="translate(-531.000000, -277.000000)" fill="#0C64FF">
            <path d="M570.4,284.08 C574.32002,287.41335 576.28,292.533299 576.28,299.44 C576.28,306.346701 574.266687,311.399984 570.24,314.6 C566.213313,317.800016 560.066708,319.4 551.8,319.4 L544.36,319.4 L544.36,335 L531.88,335 L531.88,279.08 L551.64,279.08 C560.22671,279.08 566.47998,280.74665 570.4,284.08 L570.4,284.08 Z M561.24,306.08 C562.733341,304.399992 563.48,301.946683 563.48,298.72 C563.48,295.493317 562.506676,293.200007 560.56,291.84 C558.613324,290.479993 555.586687,289.8 551.48,289.8 L544.36,289.8 L544.36,308.6 L552.76,308.6 C556.920021,308.6 559.746659,307.760008 561.24,306.08 L561.24,306.08 Z M586.04,335 L586.04,279.08 L598.52,279.08 L598.52,323.88 L622.36,323.88 L622.36,335 L586.04,335 Z M677.32,335 L672.12,322.92 L648.68,322.92 L643.48,335 L630.2,335 L654.36,279.08 L666.44,279.08 L690.6,335 L677.32,335 Z M660.44,295.72 L653.4,311.96 L667.4,311.96 L660.44,295.72 Z M715.16,335 L702.68,335 L702.68,312.92 L683.32,279.08 L696.84,279.08 L708.92,299.88 L721,279.08 L734.52,279.08 L715.16,312.92 L715.16,335 Z M780.84,279.08 L780.84,290.2 L753,290.2 L753,301.72 L778.04,301.72 L778.04,312.36 L753,312.36 L753,323.96 L781.72,323.96 L781.72,335 L740.52,335 L740.52,279.08 L780.84,279.08 Z M837.2,297.64 C837.2,306.600045 833.653369,312.386654 826.56,315 L840.72,335 L825.36,335 L812.96,317.16 L804.32,317.16 L804.32,335 L791.84,335 L791.84,279.08 L813.04,279.08 C821.733377,279.08 827.933315,280.546652 831.64,283.48 C835.346685,286.413348 837.2,291.133301 837.2,297.64 L837.2,297.64 Z M822.16,304.28 C823.706674,302.893326 824.48,300.693348 824.48,297.68 C824.48,294.666652 823.680008,292.600006 822.08,291.48 C820.479992,290.359994 817.68002,289.8 813.68,289.8 L804.32,289.8 L804.32,306.36 L813.44,306.36 C817.706688,306.36 820.613326,305.666674 822.16,304.28 L822.16,304.28 Z M889.36,300.88 C890.77334,298.87999 891.48,296.946676 891.48,295.08 C891.48,293.213324 890.866673,291.65334 889.64,290.4 C888.413327,289.14666 886.84001,288.52 884.92,288.52 C881.399982,288.52 878.066682,291.026642 874.92,296.04 L864.92,290.12 C867.533346,286.066646 870.399984,283.00001 873.52,280.92 C876.640016,278.83999 880.613309,277.8 885.44,277.8 C890.266691,277.8 894.506648,279.333318 898.16,282.4 C901.813352,285.466682 903.64,289.639974 903.64,294.92 C903.64,297.800014 902.906674,300.559987 901.44,303.2 C899.973326,305.840013 897.266686,309.213313 893.32,313.32 L883.24,323.8 L905.32,323.8 L905.32,335 L865.88,335 L865.88,325.72 L882.28,308.92 C885.586683,305.559983 887.94666,302.88001 889.36,300.88 L889.36,300.88 Z" id="PLAYER-2" sketch:type="MSShapeGroup"></path>
        </g>
    </g>
</svg>