<?xml version="1.0" encoding="UTF-8" standalone="no"?>
<svg width="44px" height="38px" viewBox="0 0 44 38" version="1.1" xmlns="http://www.w3.org/2000/svg" xmlns:xlink="http://www.w3.org/1999/xlink" xmlns:sketch="http://www.bohemiancoding.com/sketch/ns">
    <!-- Generator: Sketch Beta 3.2 (9961) - http://www.bohemiancoding.com/sketch -->
    <title>Triangle 1 + Triangle 1</title>
    <desc>Created with Sketch Beta.</desc>
    <defs></defs>
    <g id="Page-1" stroke="none" stroke-width="1" fill="none" fill-rule="evenodd" sketch:type="MSPage">
        <g id="Desktop-HD" sketch:type="MSArtboardGroup" transform="translate(-698.000000, -853.000000)">
            <g id="Triangle-1-+-Triangle-1" sketch:type="MSLayerGroup" transform="translate(700.000000, 867.000000)" stroke="#FF2742">
                <path d="M0.371682411,7.66666667 L39.6283176,7.66666667 L20,23 L0.371682411,7.66666667 Z" id="Triangle-1" sketch:type="MSShapeGroup"></path>
                <path d="M0.371682411,0 L39.6283176,0 L20,15.3333333 L0.371682411,0 Z" id="Triangle-1" sketch:type="MSShapeGroup"></path>
            </g>
            <path d="M705.319,853.047 L705.319,854.224 L701.7935,854.224 L701.7935,856.4295 L704.571,856.4295 L704.571,857.568 L701.7935,857.568 L701.7935,859.8175 L705.319,859.8175 L705.319,861 L700.303,861 L700.303,853.047 L705.319,853.047 Z M715.8625,857.0235 C715.8625,857.606503 715.765334,858.141831 715.571,858.6295 C715.376666,859.117169 715.103502,859.536998 714.7515,859.889 C714.399498,860.241002 713.976003,860.514166 713.481,860.7085 C712.985998,860.902834 712.437836,861 711.8365,861 L708.8005,861 L708.8005,853.047 L711.8365,853.047 C712.437836,853.047 712.985998,853.145082 713.481,853.34125 C713.976003,853.537418 714.399498,853.810582 714.7515,854.16075 C715.103502,854.510918 715.376666,854.929831 715.571,855.4175 C715.765334,855.905169 715.8625,856.440497 715.8625,857.0235 L715.8625,857.0235 Z M714.35,857.0235 C714.35,856.587164 714.291334,856.195752 714.174,855.84925 C714.056666,855.502748 713.889834,855.209418 713.6735,854.96925 C713.457166,854.729082 713.194085,854.544834 712.88425,854.4165 C712.574415,854.288166 712.225169,854.224 711.8365,854.224 L710.291,854.224 L710.291,859.823 L711.8365,859.823 C712.225169,859.823 712.574415,859.758834 712.88425,859.6305 C713.194085,859.502166 713.457166,859.317918 713.6735,859.07775 C713.889834,858.837582 714.056666,858.544252 714.174,858.19775 C714.291334,857.851248 714.35,857.459836 714.35,857.0235 L714.35,857.0235 Z M725.933,861 L724.789,861 C724.660666,861 724.555251,860.967917 724.47275,860.90375 C724.39025,860.839583 724.330667,860.759834 724.294,860.6645 L723.7,859.042 L720.4055,859.042 L719.8115,860.6645 C719.782167,860.748834 719.724417,860.825833 719.63825,860.8955 C719.552083,860.965167 719.446667,861 719.322,861 L718.1725,861 L721.2965,853.047 L722.809,853.047 L725.933,861 Z M720.785,857.997 L723.3205,857.997 L722.3525,855.3515 C722.3085,855.234166 722.259917,855.095751 722.20675,854.93625 C722.153583,854.776749 722.101334,854.603501 722.05,854.4165 C721.998667,854.603501 721.94825,854.777666 721.89875,854.939 C721.84925,855.100334 721.800667,855.241499 721.753,855.3625 L720.785,857.997 Z M733.215,854.4935 C733.174667,854.574167 733.127917,854.631 733.07475,854.664 C733.021583,854.697 732.958334,854.7135 732.885,854.7135 C732.811666,854.7135 732.729167,854.685084 732.6375,854.62825 C732.545833,854.571416 732.437667,854.508167 732.313,854.4385 C732.188333,854.368833 732.042584,854.305584 731.87575,854.24875 C731.708916,854.191916 731.511835,854.1635 731.2845,854.1635 C731.079166,854.1635 730.900418,854.18825 730.74825,854.23775 C730.596083,854.28725 730.467751,854.356 730.36325,854.444 C730.25875,854.532 730.180834,854.637416 730.1295,854.76025 C730.078167,854.883084 730.0525,855.017833 730.0525,855.1645 C730.0525,855.351501 730.10475,855.507333 730.20925,855.632 C730.313751,855.756667 730.452166,855.863 730.6245,855.951 C730.796834,856.039 730.992999,856.117833 731.213,856.1875 C731.433001,856.257167 731.657582,856.331416 731.88675,856.41025 C732.115918,856.489084 732.340499,856.580749 732.5605,856.68525 C732.780501,856.789751 732.976666,856.921749 733.149,857.08125 C733.321334,857.240751 733.45975,857.435999 733.56425,857.667 C733.668751,857.898001 733.721,858.178498 733.721,858.5085 C733.721,858.867835 733.659584,859.204248 733.53675,859.51775 C733.413916,859.831252 733.234251,860.104416 732.99775,860.33725 C732.761249,860.570084 732.472502,860.753416 732.1315,860.88725 C731.790498,861.021084 731.400002,861.088 730.96,861.088 C730.706999,861.088 730.457668,861.06325 730.212,861.01375 C729.966332,860.96425 729.730751,860.893667 729.50525,860.802 C729.279749,860.710333 729.068918,860.600334 728.87275,860.472 C728.676582,860.343666 728.501501,860.200667 728.3475,860.043 L728.7765,859.3335 C728.816834,859.282166 728.865417,859.239084 728.92225,859.20425 C728.979084,859.169416 729.042333,859.152 729.112,859.152 C729.203667,859.152 729.302666,859.189583 729.409,859.26475 C729.515334,859.339917 729.640916,859.423333 729.78575,859.515 C729.930584,859.606667 730.101082,859.690083 730.29725,859.76525 C730.493418,859.840417 730.728999,859.878 731.004,859.878 C731.425669,859.878 731.751999,859.778084 731.983,859.57825 C732.214001,859.378416 732.3295,859.091502 732.3295,858.7175 C732.3295,858.508499 732.277251,858.338001 732.17275,858.206 C732.06825,858.073999 731.929834,857.963084 731.7575,857.87325 C731.585166,857.783416 731.389001,857.707334 731.169,857.645 C730.948999,857.582666 730.725335,857.514834 730.498,857.4415 C730.270666,857.368166 730.047001,857.280167 729.827,857.1775 C729.606999,857.074833 729.410834,856.941001 729.2385,856.776 C729.066166,856.610999 728.927751,856.404751 728.82325,856.15725 C728.71875,855.909749 728.6665,855.604502 728.6665,855.2415 C728.6665,854.951832 728.72425,854.669501 728.83975,854.3945 C728.955251,854.119499 729.123916,853.875668 729.34575,853.663 C729.567585,853.450332 729.839832,853.279834 730.1625,853.1515 C730.485168,853.023166 730.853665,852.959 731.268,852.959 C731.737336,852.959 732.169998,853.032333 732.566,853.179 C732.962002,853.325667 733.299332,853.530999 733.578,853.795 L733.215,854.4935 Z M738.7205,861 L737.2355,861 L737.2355,853.047 L738.7205,853.047 L738.7205,861 Z" id="EDASI" opacity="0.169251399" fill="#FFFFFF" sketch:type="MSShapeGroup"></path>
        </g>
    </g>
</svg>