<?xml version="1.0" encoding="UTF-8" standalone="no"?>
<svg width="172px" height="33px" viewBox="0 0 172 33" version="1.1" xmlns="http://www.w3.org/2000/svg" xmlns:xlink="http://www.w3.org/1999/xlink" xmlns:sketch="http://www.bohemiancoding.com/sketch/ns">
    <!-- Generator: Sketch Beta 3.2 (9961) - http://www.bohemiancoding.com/sketch -->
    <title>Imported Layers</title>
    <desc>Created with Sketch Beta.</desc>
    <defs></defs>
    <g id="Page-1" stroke="none" stroke-width="1" fill="none" fill-rule="evenodd" sketch:type="MSPage">
        <g id="Desktop-HD" sketch:type="MSArtboardGroup" transform="translate(-622.000000, -222.000000)">
            <g id="Imported-Layers" sketch:type="MSLayerGroup" transform="translate(622.000000, 222.000000)">
                <path d="M100.087709,19.446 L95.402793,5.3535 L91.8487577,5.3535 L99.3072687,27.82725 L100.738581,27.82725 L108.197471,5.3535 L104.830211,5.3535 L100.087709,19.446" id="Fill-1" fill="#FFFFFF" sketch:type="MSShapeGroup"></path>
                <path d="M74.4339471,17.975625 L81.9712599,17.975625 L81.9712599,14.85975 L74.4339471,14.85975 L74.4339471,8.65875 L83.4984229,8.65875 L83.9223612,5.3535 L70.869304,5.3535 L70.869304,27.82725 L84.1413392,27.82725 L84.1413392,24.522 L74.4339471,24.522 L74.4339471,17.975625" id="Fill-2" fill="#FFFFFF" sketch:type="MSShapeGroup"></path>
                <path d="M119.115683,17.975625 L126.652238,17.975625 L126.652238,14.85975 L119.115683,14.85975 L119.115683,8.65875 L128.179401,8.65875 L128.603718,5.3535 L115.550661,5.3535 L115.550661,27.82725 L128.822317,27.82725 L128.822317,24.522 L119.115683,24.522 L119.115683,17.975625" id="Fill-3" fill="#FFFFFF" sketch:type="MSShapeGroup"></path>
                <path d="M52.3967313,5.3535 L48.8320881,5.3535 L48.8320881,27.82725 L62.1351894,27.82725 L62.1351894,24.523125 L52.3967313,24.523125 L52.3967313,5.3535" id="Fill-4" fill="#FFFFFF" sketch:type="MSShapeGroup"></path>
                <path d="M141.121454,5.3535 L137.556432,5.3535 L137.556432,27.82725 L150.495454,27.82725 L150.919771,24.523125 L141.121454,24.523125 L141.121454,5.3535" id="Fill-5" fill="#FFFFFF" sketch:type="MSShapeGroup"></path>
                <path d="M166.673683,24.522 L166.673683,5.3535 L163.831137,5.3535 L157.024634,9.606375 L158.598775,12.216 L163.202238,9.415875 L163.202238,24.522 L157.73385,24.522 L157.308775,27.82725 L171.198722,27.82725 L171.62304,24.522 L166.673683,24.522" id="Fill-6" fill="#FFFFFF" sketch:type="MSShapeGroup"></path>
                <path d="M6.29732159,22.047375 L3.60177093,31.005375 L18.0482555,27.595125 L21.5098502,32.993625 L23.2950132,29.613 L26.8168458,31.1805 L26.2512159,25.658625 L32.0916388,24.280125 L28.2398238,20.25 L30.6178943,15.747 L35.5755859,12.333 L33.0429427,11.15475 L35.0781498,7.300875 L25.6056476,7.69425 L24.3520176,7.111125 L23.8632952,2.337375 L20.0065551,5.0895 L9.06864317,0.00075 L9.78088987,8.351625 L5.81503965,8.516625 L8.76214978,13.113 L0.104185022,19.291125 L6.29732159,22.047375 L6.29732159,22.047375 Z M2.49362115,19.051125 L8.48520705,14.77575 L6.64321586,20.898 L2.49362115,19.051125 L2.49362115,19.051125 Z M24.2387401,17.794125 L24.3247401,18.63225 L16.970793,23.69625 L11.5774185,15.285375 L11.3591982,12.72525 L16.1357974,9.3165 L24.2387401,17.794125 L24.2387401,17.794125 Z M17.689859,9.213 L23.3363084,8.97825 L24.0405991,15.856875 L17.689859,9.213 L17.689859,9.213 Z M11.7956388,17.843625 L15.9838767,24.37575 L15.3841498,24.788625 L12.2695859,23.40225 L11.7956388,17.843625 L11.7956388,17.843625 Z M11.0170925,22.845 L7.74795595,21.39 L9.7672511,14.680125 L10.4056211,15.67575 L11.0170925,22.845 L11.0170925,22.845 Z M14.2347048,25.58025 L12.5541057,26.7375 L12.3851366,24.757125 L14.2347048,25.58025 L14.2347048,25.58025 Z M15.5118238,26.14875 L16.72037,26.686875 L13.6925639,27.40125 L15.5118238,26.14875 L15.5118238,26.14875 Z M24.4490044,24.862125 L18.6335859,26.235 L18.5843348,26.21325 L17.6148458,24.7005 L24.463022,19.984875 L24.8793833,24.047625 L24.4490044,24.862125 L24.4490044,24.862125 Z M23.7117533,26.25825 L22.7551454,28.0695 L20.4274626,27.033375 L23.7117533,26.25825 L23.7117533,26.25825 Z M25.5908722,19.20825 L25.5908722,19.20825 L26.7785815,20.451 L25.8901674,22.13325 L25.5908722,19.20825 L25.5908722,19.20825 Z M25.3923524,17.271 L24.5380352,8.928375 L25.3612863,8.89425 L31.3983348,11.703 L29.6900793,14.93775 L25.753022,17.648625 L25.3923524,17.271 L25.3923524,17.271 Z M17.9645286,8.011875 L20.1353656,6.46275 L23.0139031,7.80225 L17.9645286,8.011875 L17.9645286,8.011875 Z M11.3330573,9.477 L14.0138326,9.365625 L11.2413744,11.34375 L11.1375683,10.126125 L11.3330573,9.477 L11.3330573,9.477 Z M11.6952423,8.272125 L12.51963,5.533125 L15.0060529,8.1345 L11.6952423,8.272125 L11.6952423,8.272125 Z M7.40244053,22.539375 L11.1326432,24.1995 L11.4505022,27.93075 L5.34639648,29.3715 L7.40244053,22.539375 L7.40244053,22.539375 Z M21.4090749,30.618375 L19.753859,28.036875 L22.1978502,29.12475 L21.4090749,30.618375 L21.4090749,30.618375 Z M23.8523084,28.55775 L25.0991189,26.19675 L25.4120529,29.25225 L23.8523084,28.55775 L23.8523084,28.55775 Z M29.7897181,23.601375 L26.1292247,24.46575 L26.1102819,24.282 L27.6514626,21.364125 L29.7897181,23.601375 L29.7897181,23.601375 Z M27.3669427,19.336875 L26.5880176,18.521625 L28.4883524,17.212875 L27.3669427,19.336875 L27.3669427,19.336875 Z M33.1823612,12.532875 L31.8196211,13.4715 L32.4860264,12.208875 L33.1823612,12.532875 L33.1823612,12.532875 Z M33.050141,8.57475 L31.9552511,10.6485 L27.9530308,8.786625 L33.050141,8.57475 L33.050141,8.57475 Z M22.8782731,4.505625 L23.0847489,6.521625 L21.2495771,5.66775 L22.8782731,4.505625 L22.8782731,4.505625 Z M18.8923436,5.8845 L16.2858238,7.744125 L11.9623348,3.220875 L10.8606256,6.881625 L10.4404758,1.95225 L18.8923436,5.8845 L18.8923436,5.8845 Z M9.88204405,9.537 L9.92182379,10.002375 L9.36869604,11.840625 L7.94344493,9.617625 L9.88204405,9.537 L9.88204405,9.537 Z" id="Fill-7" fill="#E73B3B" sketch:type="MSShapeGroup"></path>
            </g>
        </g>
    </g>
</svg>